<svg xmlns="http://www.w3.org/2000/svg" viewBox="0 0 1440 320"><path fill="#312e81" fill-opacity="0.8" d="M0,0L7.7,26.7C15.5,53,31,107,46,154.7C61.9,203,77,245,93,256C108.4,267,124,245,139,245.3C154.8,245,170,267,186,277.3C201.3,288,217,288,232,245.3C247.7,203,263,117,279,122.7C294.2,128,310,224,325,261.3C340.6,299,356,277,372,266.7C387.1,256,403,256,418,224C433.5,192,449,128,465,128C480,128,495,192,511,224C526.5,256,542,256,557,229.3C572.9,203,588,149,604,149.3C619.4,149,635,203,650,202.7C665.8,203,681,149,697,133.3C712.3,117,728,139,743,160C758.7,181,774,203,790,213.3C805.2,224,821,224,836,224C851.6,224,867,224,883,208C898.1,192,914,160,929,154.7C944.5,149,960,171,975,160C991,149,1006,107,1022,112C1037.4,117,1053,171,1068,197.3C1083.9,224,1099,224,1115,197.3C1130.3,171,1146,117,1161,133.3C1176.8,149,1192,235,1208,240C1223.2,245,1239,171,1254,133.3C1269.7,96,1285,96,1301,90.7C1316.1,85,1332,75,1347,74.7C1362.6,75,1378,85,1394,90.7C1409,96,1425,96,1432,96L1440,96L1440,320L1432.3,320C1424.5,320,1409,320,1394,320C1378.1,320,1363,320,1347,320C1331.6,320,1316,320,1301,320C1285.2,320,1270,320,1254,320C1238.7,320,1223,320,1208,320C1192.3,320,1177,320,1161,320C1145.8,320,1130,320,1115,320C1099.4,320,1084,320,1068,320C1052.9,320,1037,320,1022,320C1006.5,320,991,320,975,320C960,320,945,320,929,320C913.5,320,898,320,883,320C867.1,320,852,320,836,320C820.6,320,805,320,790,320C774.2,320,759,320,743,320C727.7,320,712,320,697,320C681.3,320,666,320,650,320C634.8,320,619,320,604,320C588.4,320,573,320,557,320C541.9,320,526,320,511,320C495.5,320,480,320,465,320C449,320,434,320,418,320C402.6,320,387,320,372,320C356.1,320,341,320,325,320C309.7,320,294,320,279,320C263.2,320,248,320,232,320C216.8,320,201,320,186,320C170.3,320,155,320,139,320C123.9,320,108,320,93,320C77.4,320,62,320,46,320C31,320,15,320,8,320L0,320Z"></path></svg>